<svg xmlns="http://www.w3.org/2000/svg" viewBox="0 0 375.81 382.44"><defs><style>.cls-1{fill:#fbb300;}.cls-2{fill:#fff;}.cls-3{fill:#18171e;}</style></defs><g id="Calque_2" data-name="Calque 2"><g id="Calque_1-2" data-name="Calque 1"><path class="cls-1" d="M375.81,295.87a67.86,67.86,0,0,1-.64,9.19,63.65,63.65,0,0,1-1.41,7,70.33,70.33,0,0,1-6.42,16.26c-.91,1.71-1.93,3.38-3,5a82.13,82.13,0,0,1-7.47,9.91c-1.79,2.07-3.68,4.05-5.64,6a118.17,118.17,0,0,1-29.76,20.84c-1.87.95-3.73,1.83-5.61,2.64a115.16,115.16,0,0,1-11.48,4.37c-2.15.74-4.29,1.36-6.42,1.93a95.16,95.16,0,0,1-24.28,3.42c-2.15,0-4.29-.05-6.42-.19-1.52-.1-3-.23-4.51-.38-17.11-1.86-33.3-8.4-44.18-22.87-1.19-1.59-2.29-3.27-3.36-5-5.27-8.83-8.84-20.13-9.95-34.42v0c-.23-2.81-.36-5.73-.39-8.81,0-1,0-2,0-3-.41.59-.83,1.16-1.26,1.73-1.17,1.63-2.36,3.26-3.54,4.83-3.29,4.34-6.63,8.56-10.06,12.6q-1.82,2.16-3.71,4.25c-1.74,2-3.5,3.89-5.25,5.75s-3.72,3.84-5.64,5.68a169.15,169.15,0,0,1-29.78,23.65c-2.55,1.55-5.13,3-7.73,4.37a110.14,110.14,0,0,1-10.87,5c-2,.82-4.08,1.57-6.13,2.22a90.92,90.92,0,0,1-28.43,4.68h-.85c-1.6,0-3.15-.05-4.7-.16-20.75-1-36.76-7.91-49-18.29-1.53-1.31-3-2.62-4.39-4a81.46,81.46,0,0,1-7.47-8.42c-1.17-1.53-2.27-3.08-3.34-4.68a94.65,94.65,0,0,1-5.25-8.64,117.32,117.32,0,0,1-6.71-14.89,159.77,159.77,0,0,1-8-31v0c-.67-4-1.17-7.88-1.56-11.74v0A219.68,219.68,0,0,1,0,258.14c0-.93,0-1.83,0-2.76a309.18,309.18,0,0,1,4.14-47.61q1.78-11.09,4.34-21.91c.51-2.29,1.08-4.53,1.65-6.78q2.14-8.27,4.68-16.33v0c1.34-4.34,2.79-8.61,4.32-12.86,3.43-9.53,7.28-18.83,11.55-27.81.31-.71.67-1.43,1-2.14,2.46-5.09,5-10.08,7.73-14.93,1-1.81,2-3.62,3-5.39q4.49-7.69,9.36-15,1.62-2.4,3.25-4.73c.15-.2.29-.41.43-.62,1.84-2.6,3.7-5.16,5.64-7.64a223,223,0,0,1,23-25.9c3-3,6.18-5.84,9.36-8.54q6.66-5.68,13.67-10.56c1.62-1.16,3.3-2.3,5-3.36a144.42,144.42,0,0,1,16.59-9.43,132.73,132.73,0,0,1,16.92-7A126.63,126.63,0,0,1,175.43.5c3.64-.34,7.29-.5,11-.5s7.11.11,10.49.29a134.11,134.11,0,0,1,29.9,4.83,63.19,63.19,0,0,1,6.28,2.06,89.6,89.6,0,0,1,29.52,17.19,54.15,54.15,0,0,1,9.48-8.78,42.53,42.53,0,0,1,5.05-3.31,65.57,65.57,0,0,1,18.6-7.39,75.78,75.78,0,0,1,17.18-2,71.08,71.08,0,0,1,8.57.51c10.05,1.21,19.24,4.48,26.18,9.12l-5.56,26.27-6.68,31.58-13.94,66-3,14.25-2.79,13.23-1.48,7v0l-1.32,6.28-2.27,10.75-.93,4.39-1.88,8.9-.7,3.3-.85,4.06-1,4.86-1.2,5.71c-.16.76-.31,1.52-.49,2.33-.8,3.87-1.73,8.24-2.79,13.23-.51,2.41-1.06,5-1.63,7.66l-3,14v0l-.23,1.11q-.63,3-1.14,5.89v0c-.41,2.29-.74,4.53-1,6.64,0,.26-.09.54-.14.85a104.26,104.26,0,0,0-1.46,19.26c0,.31,0,.62,0,.93.29,6.26,1.55,11.44,4.11,15.35a16.2,16.2,0,0,0,4,4.34c4.18,3.16,10.15,4.63,18.35,4.16.93-.05,1.87-.12,2.85-.23.57-.05,1.15-.13,1.77-.2,16.85-2.17,29.23-8.33,37.92-15.18,1.63-1.29,3.1-2.58,4.47-3.87a59.48,59.48,0,0,0,8-9.38A20.91,20.91,0,0,1,375.81,295.87Z"/><path class="cls-1" d="M295.61,229.46l7.91-8c-.8,3.87-1.73,8.24-2.79,13.23Z"/><polygon class="cls-2" points="273.31 166.78 232.63 227.41 220.38 245.66 187.81 294.17 184.45 299.19 175.87 311.98 170.65 311.98 135.19 188.05 73.21 184.74 50.03 132.25 100.17 86.35 210.45 100.95 214.64 101.5 219.68 110.33 225.18 119.97 228.23 125.33 251.08 165.36 273.31 166.78"/><polygon class="cls-2" points="221.98 302.29 254.38 262.32 228.6 262.32 221.98 302.29"/><path class="cls-1" d="M198.49,158.77a23.34,23.34,0,0,0-30.24-1,23.79,23.79,0,0,0-6.44,30.33c3.46,6.52,7.14,13,10.86,19.7h20.22c3.64-6.57,6.74-12.52,10.11-18.3C209,179.12,207.29,166.56,198.49,158.77ZM189,177.55a8.62,8.62,0,0,1-8.27-9.33,8.82,8.82,0,0,1,9.54-8.14,9,9,0,0,1,8.1,9.19A8.78,8.78,0,0,1,189,177.55Z"/><path class="cls-3" d="M187,211.85h-9.2c-6.42.06-6.6.06-6.56,6.44,0,4.05.92,9.09,4.49,10.47a17.93,17.93,0,0,0,6.61,1h.12a17.9,17.9,0,0,0,6.61-1c3.58-1.38,4.47-6.42,4.49-10.47C193.6,211.91,193.42,211.91,187,211.85Z"/></g></g></svg>