<svg xmlns="http://www.w3.org/2000/svg" viewBox="0 0 328.28 334.06"><defs><style>.cls-1{fill:#fbb300;}.cls-2{fill:#fff;}</style></defs><g id="Calque_2" data-name="Calque 2"><g id="Calque_1-2" data-name="Calque 1"><path class="cls-1" d="M328.28,258.45a58.8,58.8,0,0,1-.57,8,55.1,55.1,0,0,1-1.22,6.14,61.44,61.44,0,0,1-5.62,14.2c-.79,1.49-1.68,2.95-2.6,4.4a73.35,73.35,0,0,1-6.52,8.65c-1.56,1.81-3.21,3.54-4.92,5.21a103.48,103.48,0,0,1-26,18.2q-2.43,1.25-4.9,2.31a99.68,99.68,0,0,1-10,3.81c-1.88.65-3.75,1.2-5.61,1.69a82.94,82.94,0,0,1-21.21,3c-1.87,0-3.75,0-5.6-.16-1.34-.08-2.65-.2-3.95-.33-14.95-1.63-29.08-7.34-38.59-20-1-1.39-2-2.85-2.93-4.39-4.61-7.72-7.72-17.58-8.7-30.07v0c-.19-2.46-.31-5-.33-7.7,0-.85,0-1.74,0-2.64-.36.52-.73,1-1.11,1.52-1,1.42-2.06,2.84-3.09,4.21-2.87,3.8-5.79,7.48-8.79,11-1.05,1.26-2.13,2.51-3.24,3.72-1.52,1.72-3.06,3.4-4.58,5s-3.26,3.36-4.93,5a148.85,148.85,0,0,1-26,20.66c-2.23,1.35-4.49,2.63-6.75,3.81A97.3,97.3,0,0,1,111,328c-1.76.71-3.56,1.37-5.35,1.94a79.59,79.59,0,0,1-24.83,4.08h-.75c-1.4,0-2.76,0-4.11-.14-18.12-.9-32.11-6.9-42.83-16-1.33-1.14-2.62-2.29-3.83-3.53a71.12,71.12,0,0,1-6.53-7.36c-1-1.33-2-2.68-2.91-4.08a83.88,83.88,0,0,1-4.59-7.55,104.07,104.07,0,0,1-5.86-13,139.6,139.6,0,0,1-7-27.09v0c-.58-3.46-1-6.89-1.35-10.26v0a188.41,188.41,0,0,1-1-19.55c0-.81,0-1.6,0-2.41a270,270,0,0,1,3.61-41.59q1.56-9.69,3.79-19.14c.45-2,.95-4,1.45-5.92q1.86-7.22,4.08-14.26v0c1.17-3.8,2.44-7.53,3.77-11.23,3-8.33,6.37-16.46,10.1-24.29.27-.63.58-1.26.87-1.88,2.15-4.44,4.38-8.8,6.76-13,.85-1.58,1.75-3.16,2.64-4.7,2.61-4.49,5.35-8.85,8.17-13.08,1-1.39,1.89-2.77,2.84-4.13.13-.17.25-.35.38-.54,1.61-2.27,3.23-4.51,4.92-6.67A195.22,195.22,0,0,1,73.48,40q4-3.93,8.17-7.45A149.62,149.62,0,0,1,93.6,23.28c1.42-1,2.88-2,4.35-2.93a125.49,125.49,0,0,1,14.5-8.24A115,115,0,0,1,127.23,6a110.9,110.9,0,0,1,26-5.55c3.18-.29,6.37-.43,9.6-.43s6.21.1,9.17.25a116.45,116.45,0,0,1,26.11,4.23,50.2,50.2,0,0,1,5.48,1.8,77.88,77.88,0,0,1,25.79,15,47.6,47.6,0,0,1,8.28-7.68,40.61,40.61,0,0,1,4.41-2.88,57,57,0,0,1,16.25-6.46,66.4,66.4,0,0,1,15-1.71,63.41,63.41,0,0,1,7.48.44,53.15,53.15,0,0,1,22.87,8l-4.85,23L293,61.5l-12.19,57.63-2.64,12.45-2.44,11.55-1.29,6.08v0l-1.15,5.49-2,9.39-.82,3.83-1.64,7.77-.61,2.89-.75,3.54-.9,4.25-1,5c-.14.66-.27,1.33-.43,2-.7,3.39-1.51,7.2-2.44,11.56-.45,2.1-.92,4.34-1.42,6.69l-2.62,12.2v0l-.2,1c-.37,1.77-.7,3.48-1,5.15v0c-.35,2-.65,4-.88,5.8,0,.23-.07.48-.11.75a89.69,89.69,0,0,0-1.28,16.82c0,.27,0,.54,0,.81.25,5.47,1.35,10,3.59,13.41a14,14,0,0,0,3.52,3.79c3.65,2.76,8.87,4,16,3.64.81-.05,1.63-.11,2.48-.21.5,0,1-.11,1.55-.17,14.72-1.9,25.54-7.28,33.13-13.26,1.42-1.13,2.71-2.26,3.9-3.38a51.91,51.91,0,0,0,7-8.2A18.36,18.36,0,0,1,328.28,258.45Z"/><path class="cls-1" d="M258.22,200.43l6.91-7c-.7,3.39-1.51,7.2-2.44,11.56Z"/><polygon class="cls-2" points="212.27 139.59 186.72 177.66 179.03 189.13 158.57 219.59 156.47 222.74 151.08 230.78 147.8 230.78 125.53 152.94 86.6 150.87 72.04 117.9 103.53 89.07 172.79 98.24 175.42 98.58 178.59 104.14 182.05 110.19 183.96 113.55 198.31 138.69 212.27 139.59"/><polygon class="cls-2" points="180.03 224.69 200.38 199.59 184.19 199.59 180.03 224.69"/></g></g></svg>