<svg xmlns="http://www.w3.org/2000/svg" viewBox="0 0 566.05 331.01"><defs><style>.cls-1{fill:#fbb300;}.cls-2{fill:#fff;}.cls-3{fill:#18171e;}</style></defs><g id="Calque_2" data-name="Calque 2"><g id="Calque_1-2" data-name="Calque 1"><path class="cls-1" d="M386.53,254.27a58.5,58.5,0,0,1-.55,7.89,55.64,55.64,0,0,1-1.21,6,60.06,60.06,0,0,1-5.52,14c-.78,1.47-1.65,2.91-2.56,4.33a70.16,70.16,0,0,1-6.42,8.5c-1.54,1.79-3.16,3.49-4.84,5.13A102.12,102.12,0,0,1,339.85,318c-1.6.82-3.2,1.58-4.82,2.27a97.59,97.59,0,0,1-9.87,3.75c-1.84.64-3.69,1.18-5.51,1.67a81.92,81.92,0,0,1-20.87,2.93c-1.85,0-3.69,0-5.51-.16-1.32-.09-2.61-.2-3.89-.33-14.7-1.6-28.61-7.22-38-19.65-1-1.37-2-2.81-2.89-4.32-4.53-7.6-7.59-17.3-8.55-29.58v0c-.19-2.42-.31-4.92-.33-7.57,0-.84,0-1.71,0-2.6-.35.51-.72,1-1.09,1.49-1,1.4-2,2.8-3,4.15-2.82,3.73-5.69,7.36-8.65,10.83-1,1.23-2.1,2.46-3.19,3.65-1.49,1.69-3,3.34-4.51,4.94s-3.2,3.31-4.84,4.89a146.26,146.26,0,0,1-25.59,20.32c-2.2,1.33-4.42,2.59-6.65,3.75a96.42,96.42,0,0,1-9.34,4.29c-1.73.7-3.5,1.36-5.26,1.91a78.28,78.28,0,0,1-24.44,4h-.73c-1.38,0-2.71,0-4-.14-17.83-.88-31.59-6.79-42.14-15.72-1.31-1.12-2.58-2.25-3.77-3.46A72.08,72.08,0,0,1,86,302.1c-1-1.32-2-2.65-2.87-4a83.46,83.46,0,0,1-4.51-7.43,100.77,100.77,0,0,1-5.77-12.79,137.93,137.93,0,0,1-6.91-26.65v0c-.57-3.4-1-6.77-1.33-10.09v0a185,185,0,0,1-1-19.24c0-.8,0-1.57,0-2.37a263.72,263.72,0,0,1,3.55-40.91q1.53-9.54,3.73-18.84c.44-2,.93-3.89,1.42-5.82,1.23-4.73,2.56-9.42,4-14v0c1.15-3.74,2.4-7.4,3.71-11,3-8.19,6.26-16.19,9.93-23.9.27-.62.57-1.24.86-1.84,2.11-4.38,4.31-8.66,6.65-12.83.84-1.56,1.72-3.12,2.6-4.63q3.85-6.63,8-12.86c.93-1.38,1.85-2.73,2.79-4.06l.38-.54c1.57-2.24,3.17-4.43,4.84-6.57a191.21,191.21,0,0,1,19.75-22.25c2.62-2.58,5.31-5,8-7.34a146.86,146.86,0,0,1,11.75-9.07c1.4-1,2.84-2,4.29-2.89a124.22,124.22,0,0,1,14.25-8.11,113.3,113.3,0,0,1,14.55-6A109,109,0,0,1,214.33.43c3.13-.29,6.26-.43,9.44-.43s6.11.1,9,.25A114.63,114.63,0,0,1,258.48,4.4a54.15,54.15,0,0,1,5.4,1.77,77.18,77.18,0,0,1,25.37,14.77,47.13,47.13,0,0,1,8.14-7.55,39.29,39.29,0,0,1,4.34-2.83,55.93,55.93,0,0,1,16-6.36,65.36,65.36,0,0,1,14.77-1.68,63.67,63.67,0,0,1,7.36.43,52.34,52.34,0,0,1,22.5,7.84l-4.78,22.58-5.74,27.14-12,56.7-2.61,12.24-2.4,11.37-1.27,6v0l-1.13,5.4-1.95,9.23-.8,3.78-1.62,7.64-.59,2.84-.74,3.49-.89,4.18-1,4.9c-.14.65-.27,1.31-.43,2-.68,3.32-1.48,7.08-2.4,11.36-.43,2.07-.9,4.27-1.39,6.58l-2.58,12v0l-.19.95c-.37,1.74-.7,3.42-1,5.07v0c-.35,2-.64,3.89-.86,5.7,0,.23-.07.47-.12.74a89.23,89.23,0,0,0-1.26,16.55,7.13,7.13,0,0,0,0,.8c.24,5.37,1.33,9.83,3.53,13.19a13.83,13.83,0,0,0,3.46,3.73c3.6,2.71,8.72,4,15.77,3.58.8-.05,1.6-.11,2.45-.21.49,0,1-.1,1.52-.17,14.48-1.86,25.12-7.15,32.59-13,1.4-1.11,2.67-2.22,3.84-3.33a50.22,50.22,0,0,0,6.84-8.06A18,18,0,0,1,386.53,254.27Z"/><path class="cls-1" d="M317.61,197.19l6.8-6.91c-.69,3.33-1.49,7.09-2.4,11.37Z"/><polygon class="cls-2" points="298.44 143.33 263.48 195.44 252.95 211.12 224.97 252.81 222.08 257.12 214.71 268.11 210.22 268.11 179.75 161.61 126.48 158.76 106.56 113.66 149.65 74.21 244.42 86.76 248.02 87.22 252.35 94.82 257.08 103.11 259.7 107.7 279.34 142.11 298.44 143.33"/><path class="cls-1" d="M234.15,136.44a20.05,20.05,0,0,0-26-.82,20.44,20.44,0,0,0-5.53,26.06c3,5.61,6.13,11.14,9.33,16.93h17.37c3.13-5.64,5.8-10.76,8.69-15.72C243.21,153.94,241.71,143.14,234.15,136.44ZM226,152.58a7.41,7.41,0,0,1-7.11-8,7.59,7.59,0,0,1,8.21-7,7.73,7.73,0,0,1,6.95,7.9A7.54,7.54,0,0,1,226,152.58Z"/><path class="cls-3" d="M224.27,182.06h-7.9c-5.52.05-5.68.05-5.64,5.53,0,3.49.79,7.82,3.86,9a15.56,15.56,0,0,0,5.68.83h.1a15.56,15.56,0,0,0,5.68-.83c3.07-1.18,3.84-5.51,3.86-9C230,182.11,229.79,182.11,224.27,182.06Z"/><path class="cls-2" d="M37.7,178.21a8,8,0,0,0-2.45-2.56,12.64,12.64,0,0,0-3.8-1.54,44.68,44.68,0,0,0-5-.75c-1.85-.19-3.5-.27-5.08-.31-1.85,0-3.5-.11-4.86-.26a16.38,16.38,0,0,1-4-.86,4.27,4.27,0,0,1-2.82-4A4.77,4.77,0,0,1,12,164l-4.25,1.92a7.13,7.13,0,0,0-2.11,1.31,7.16,7.16,0,0,0-1.46,1.58,4.82,4.82,0,0,0-.87,1.55,5,5,0,0,0-.23,1.35,5.51,5.51,0,0,0,.61,2.78,6.2,6.2,0,0,0,1.8,1.77l4.4,2.67L5.08,180.8a10.09,10.09,0,0,0-4,2.56A5.24,5.24,0,0,0,0,186.79,6,6,0,0,0,.9,190a8,8,0,0,0,3,3,20.46,20.46,0,0,0,5.72,2.33,33.27,33.27,0,0,0,8.69.94,28.59,28.59,0,0,0,9-1.24,21.68,21.68,0,0,0,6.39-3.28,13.58,13.58,0,0,0,3.69-4.43,10.9,10.9,0,0,0,1.2-4.86A8.73,8.73,0,0,0,37.7,178.21Zm-7.34,9.44a6.81,6.81,0,0,1-2.63,2.64,12.41,12.41,0,0,1-3.8,1.2,25.84,25.84,0,0,1-5.31.41,30.21,30.21,0,0,1-5-.34,12.63,12.63,0,0,1-3.61-1.2,5.53,5.53,0,0,1-2.56-2.52A5.84,5.84,0,0,1,6.77,185a6.84,6.84,0,0,1,1.32-4,12.55,12.55,0,0,1,2.74-2.52l.76-.49.9.08c1.81.15,3.69.26,5.57.3,2.33.07,4,.22,5.53.41a15.8,15.8,0,0,1,4.59,1.28A5,5,0,0,1,31,184.72,7.2,7.2,0,0,1,30.36,187.65Zm9.18-44,0-2.48-12.41-.26a20.41,20.41,0,0,0-9.18-2,23.52,23.52,0,0,0-6.77.94A16.89,16.89,0,0,0,6,142.39a10.7,10.7,0,0,0-4.48,8.92,10.32,10.32,0,0,0,1.66,5.83,13.13,13.13,0,0,0,4.7,4.18l4.48,2.4a1.13,1.13,0,0,1,.15-.07l.9-.56,1,.26c.45.07,1,.15,1.58.19s1.24,0,1.92,0a21.84,21.84,0,0,0,6.51-.9,16.6,16.6,0,0,0,5.11-2.52,11.78,11.78,0,0,0,3.2-3.84,10.73,10.73,0,0,0,1.17-5,12.83,12.83,0,0,0-.12-1.77,10.73,10.73,0,0,0-.37-1.69l-.64-2.56,5.83-1.35A2.4,2.4,0,0,0,39.54,143.63ZM24.72,157.71h0c-1.54,1.69-3.8,2.52-6.77,2.52a9.67,9.67,0,0,1-3.84-.64,7.79,7.79,0,0,1-2.93-1.92,7.24,7.24,0,0,1-1.73-2.82,10.77,10.77,0,0,1-.53-3.24,8.63,8.63,0,0,1,2.22-6.13c1.5-1.58,3.72-2.37,6.81-2.37s5.26.79,6.73,2.37a8.32,8.32,0,0,1,2.22,6.13A8.94,8.94,0,0,1,24.72,157.71Z"/><path class="cls-2" d="M69.34,139.23,68.66,147c-.11,0-.26,0-.42,0a6.3,6.3,0,0,1-1.12-.12L66,146.76a6.85,6.85,0,0,0-1.51-.12A9.49,9.49,0,0,0,58,148.86a15.9,15.9,0,0,0-3.68,5.31L54.1,180.5H45.48V139.72h5.57a3.31,3.31,0,0,1,1.21.19,6.24,6.24,0,0,1,.3,1l1.95,10.68,3.43-6a16.67,16.67,0,0,1,4.25-5.08A7.48,7.48,0,0,1,67,138.86,6.63,6.63,0,0,1,69.34,139.23Z"/><path class="cls-2" d="M375.19,150.56a20.17,20.17,0,0,0-3.08-6.55,12.75,12.75,0,0,0-4.4-3.87,12,12,0,0,0-5.46-1.32,14.53,14.53,0,0,0-6.92,1.54,20.57,20.57,0,0,0-5.45,4.22l-3.05,3.19-2.26-7.56c-.11-.3-.19-.49-.94-.49h-5.94V195h8.61V174.41l4.22,3.61a13.53,13.53,0,0,0,3.72,2.33,12.59,12.59,0,0,0,5,.83,15,15,0,0,0,12.15-5.91,20.71,20.71,0,0,0,3.61-6.8,27.56,27.56,0,0,0,1.28-8.73A32.24,32.24,0,0,0,375.19,150.56Zm-8.65,16.21a14.41,14.41,0,0,1-2.26,5.23,8.9,8.9,0,0,1-3.76,3.2,10.65,10.65,0,0,1-4.51,1,13.74,13.74,0,0,1-4.74-.87,11.78,11.78,0,0,1-4.29-3.05l-.68-.75V150.29l.45-.67a16.07,16.07,0,0,1,4.56-4,12.39,12.39,0,0,1,6.2-1.43,9.31,9.31,0,0,1,4,.9,8.21,8.21,0,0,1,3.35,3.16,14.33,14.33,0,0,1,1.8,4.82,31.73,31.73,0,0,1,.57,6.62A29.47,29.47,0,0,1,366.54,166.77Z"/><path class="cls-2" d="M418.82,153.89v26.6h-8.61v-26.6a10.31,10.31,0,0,0-2.15-6.85,8.07,8.07,0,0,0-6.51-2.82,11.64,11.64,0,0,0-5.3,1.24,19.1,19.1,0,0,0-4.4,2.94l-.87.79v31.3h-8.61v-61.1H391V146.7l4.22-3.57a21,21,0,0,1,4.74-3,16.13,16.13,0,0,1,11.47,0,11.65,11.65,0,0,1,4,3,13.44,13.44,0,0,1,2.48,4.62A20.91,20.91,0,0,1,418.82,153.89Z"/><path class="cls-2" d="M435.68,124.66a4.6,4.6,0,0,1-.46,2,5,5,0,0,1-1.24,1.69,6.27,6.27,0,0,1-1.92,1.24,5.87,5.87,0,0,1-4.4,0,7.74,7.74,0,0,1-1.8-1.2,5.75,5.75,0,0,1-1.21-1.69,5.17,5.17,0,0,1,0-4.22,6,6,0,0,1,1.21-1.76,6.54,6.54,0,0,1,1.8-1.21,5.8,5.8,0,0,1,2.15-.41,6.6,6.6,0,0,1,2.29.41,6.81,6.81,0,0,1,1.88,1.21,5.48,5.48,0,0,1,1.24,1.84A4.42,4.42,0,0,1,435.68,124.66Z"/><rect class="cls-2" x="425.63" y="139.71" width="8.62" height="40.78"/><path class="cls-2" d="M473.27,140.21a1.56,1.56,0,0,0-.45,0l-2.14,6.7-3.5-3.5a19.45,19.45,0,0,0-2-1.88,9.93,9.93,0,0,0-1.92-1.1,9.47,9.47,0,0,0-2.49-.9,15.67,15.67,0,0,0-3.12-.26,14.93,14.93,0,0,0-6.66,1.47,15.28,15.28,0,0,0-5.19,4.25,20.69,20.69,0,0,0-3.5,6.62,28.56,28.56,0,0,0-1.24,8.61,32,32,0,0,0,1.13,9.07,19.88,19.88,0,0,0,3,6.43,11.69,11.69,0,0,0,4.21,3.69,13.67,13.67,0,0,0,11.52,0,18.72,18.72,0,0,0,5-3.57l5.11-5v23.7h7.72V140.21ZM471.05,170l-.75.86a21.51,21.51,0,0,1-2,2.11,13.87,13.87,0,0,1-5.46,2.86,15.5,15.5,0,0,1-3.42.37,9.2,9.2,0,0,1-4.37-1,8.57,8.57,0,0,1-3.49-3.27,15,15,0,0,1-1.81-5,29.05,29.05,0,0,1-.6-6.7,30.76,30.76,0,0,1,.67-6.88l0-.3a17.61,17.61,0,0,1,2.26-5.27,10.12,10.12,0,0,1,4-3.42,12.53,12.53,0,0,1,9.63-.12,11.69,11.69,0,0,1,4.47,3.16l.79.87Z"/><path class="cls-2" d="M522.18,139.72V180.5h-6c-.72,0-.83-.18-.9-.49l-2-6.73-2.93,3a32.38,32.38,0,0,1-2.52,2.11,14.85,14.85,0,0,1-2.56,1.47,17.26,17.26,0,0,1-3,1,16.35,16.35,0,0,1-9.18-.71,11.75,11.75,0,0,1-4-3,13.86,13.86,0,0,1-2.52-4.67,20.16,20.16,0,0,1-.9-6.21V139.72h8.61v26.56a10.49,10.49,0,0,0,2.18,6.89,8.09,8.09,0,0,0,6.48,2.74,12,12,0,0,0,5.3-1.16,19.25,19.25,0,0,0,4.4-3l.87-.76v-31.3Z"/><path class="cls-2" d="M564.77,149.54a17.05,17.05,0,0,0-3.69-5.72,15.85,15.85,0,0,0-5.61-3.53,20.45,20.45,0,0,0-7.41-1.28,21.1,21.1,0,0,0-8.46,1.62,20.46,20.46,0,0,0-6.32,4.32,19.1,19.1,0,0,0-3.95,6.36,23,23,0,0,0-1.39,7.83,26.38,26.38,0,0,0,1.65,9.7,19.84,19.84,0,0,0,4.4,6.85,18.71,18.71,0,0,0,6.51,4.06,23.93,23.93,0,0,0,8.17,1.43,35.89,35.89,0,0,0,4.62-.34,18.68,18.68,0,0,0,4.59-1.05,20.24,20.24,0,0,0,4.59-2.15,15.12,15.12,0,0,0,2.49-1.91l-2.56-3.2c-.15-.19-.15-.23-.49-.23a3.11,3.11,0,0,0-1.28.3l-.87.45c-.41.23-.82.46-1.28.68a21.43,21.43,0,0,1-3.64,1.58,16.69,16.69,0,0,1-4.93.68,12.8,12.8,0,0,1-9-3.24c-2.33-2.1-3.76-5.45-4.33-9.89l-.22-2.86H565.9a1.31,1.31,0,0,0,0-.34,11.35,11.35,0,0,0,.12-2.18A22.22,22.22,0,0,0,564.77,149.54Zm-5.91,7.6H536.29l.52-3a14.12,14.12,0,0,1,3.58-7.79,10.78,10.78,0,0,1,7.94-3,10.64,10.64,0,0,1,4.85,1.06,9.64,9.64,0,0,1,3.39,2.67,10.37,10.37,0,0,1,1.8,3.61,14.6,14.6,0,0,1,.49,3.91Z"/><path class="cls-1" d="M387.83,264.89c0-8.84,0-16.69-.17-24.13h24.15c.33,2,.65,10.82.65,15.62,3.92-10.17,13.41-17.6,28.53-17.68v23.5c-17.87-.46-28.53,4.35-28.53,28.73v14.15a24.63,24.63,0,0,1-24.63,24.62h0Z"/><path class="cls-1" d="M442.31,240.87H456a24.08,24.08,0,0,1,24.08-24.08h.54v24.08h17.42v18.51H480.64v43.89c0,6.75,2.06,9.38,9.41,9.38a44.31,44.31,0,0,0,5.6-.28v2.2A16.42,16.42,0,0,1,479.25,331h-.15c-17.35,0-23.08-9.28-23.08-24.84V259.38H442.31Z"/></g></g></svg>