<svg xmlns="http://www.w3.org/2000/svg" xmlns:xlink="http://www.w3.org/1999/xlink" viewBox="0 0 2225.97 50"><defs><style>.cls-1{fill:none;}.cls-2{fill:#18171e;}.cls-3{clip-path:url(#clip-path);}.cls-4{fill:#e17d27;}.cls-5{fill:#fbb300;}.cls-6{fill:#e9c579;}.cls-7{fill:#d09342;}.cls-8{fill:#e78f2d;}.cls-9{fill:#fff;}</style><clipPath id="clip-path" transform="translate(277.97)"><rect class="cls-1" width="1920" height="50"/></clipPath></defs><g id="Calque_2" data-name="Calque 2"><g id="Calque_1-2" data-name="Calque 1"><rect class="cls-2" x="277.97" width="1920" height="50"/><g class="cls-3"><polygon class="cls-4" points="1626.02 30.15 1633 37.01 1639.97 43.85 1612.08 43.85 1619.05 37.01 1626.02 30.15"/><path class="cls-4" d="M1286.75,26.56l-17.6,17.29h35.2Zm-10.29,14.3,10.29-10.1L1297,40.86Z" transform="translate(277.97)"/><polygon class="cls-5" points="1505.16 30.15 1512.13 37.01 1519.1 43.85 1491.21 43.85 1498.18 37.01 1505.16 30.15"/><path class="cls-6" d="M1165.88,26.56l-17.6,17.29h35.2Zm-10.28,14.3,10.28-10.1,10.3,10.1Z" transform="translate(277.97)"/><path class="cls-7" d="M1300.81,21.27H1336L1318.41,4Zm7.31-3,10.29-10.1,10.29,10.1Z" transform="translate(277.97)"/><path class="cls-5" d="M818,21.27h35.2L835.6,4Zm7.31-3L835.6,8.18l10.29,10.1Z" transform="translate(277.97)"/><polygon class="cls-6" points="1528.86 12.63 1521.88 19.48 1535.83 19.48 1549.77 19.48 1542.8 12.63 1535.83 5.78 1528.86 12.63"/><path class="cls-8" d="M1179.83,21.27H1215L1197.43,4Zm7.3-3,10.3-10.1,10.29,10.1Z" transform="translate(277.97)"/><polygon class="cls-5" points="1408.54 12.63 1401.57 19.48 1415.51 19.48 1429.45 19.48 1422.48 12.63 1415.51 5.78 1408.54 12.63"/><path class="cls-5" d="M1046.86,26.56l-17.59,17.29h35.19Zm-10.29,14.3,10.29-10.1,10.29,10.1Z" transform="translate(277.97)"/><polygon class="cls-4" points="1386.14 30.15 1393.1 37.01 1400.08 43.85 1372.19 43.85 1379.16 37.01 1386.14 30.15"/><polygon class="cls-6" points="1265.26 30.15 1272.24 37.01 1279.21 43.85 1251.32 43.85 1258.3 37.01 1265.26 30.15"/><polygon class="cls-4" points="1149.35 37.01 1156.32 43.85 1154.83 43.85 1128.43 43.85 1126.93 43.85 1133.91 37.01 1140.88 30.15 1141.63 30.89 1142.37 30.15 1149.35 37.01"/><polygon class="cls-9" points="1144.17 12.04 1160.35 27.95 1173.92 41.28 1174.96 42.31 1189.57 27.95 1205.76 12.04 1221.94 27.95 1235.51 41.28 1249.08 27.95 1265.26 12.04 1281.46 27.95 1295.94 42.19 1310.44 27.95 1326.62 12.04 1342.81 27.95 1356.38 41.29 1369.95 27.95 1386.14 12.04 1402.32 27.95 1415.89 41.28 1429.46 27.95 1445.64 12.04 1461.83 27.95 1475.4 41.28 1488.97 27.95 1505.16 12.04 1521.34 27.95 1535.84 42.19 1550.33 27.95 1566.52 12.04 1582.7 27.95 1596.27 41.28 1609.84 27.95 1626.02 12.04 1642.21 27.95 1658.4 43.85 1653.91 43.85 1639.97 30.15 1626.02 16.45 1612.08 30.15 1598.51 43.49 1598.88 43.85 1593.65 43.85 1594.03 43.49 1580.46 30.15 1566.52 16.45 1552.57 30.15 1538.62 43.85 1537.53 43.85 1534.15 43.85 1533.05 43.85 1519.1 30.15 1505.16 16.45 1491.21 30.15 1477.65 43.49 1478.02 43.85 1472.79 43.85 1473.16 43.49 1459.59 30.15 1445.64 16.45 1431.7 30.15 1418.13 43.49 1418.51 43.85 1413.27 43.85 1413.65 43.49 1400.08 30.15 1386.14 16.45 1372.19 30.15 1358.62 43.49 1358.99 43.85 1353.77 43.85 1354.14 43.49 1340.57 30.15 1326.62 16.45 1312.68 30.15 1298.73 43.85 1297.64 43.85 1294.25 43.85 1293.15 43.85 1279.21 30.15 1265.26 16.45 1251.32 30.15 1237.75 43.49 1238.13 43.85 1232.89 43.85 1233.27 43.49 1219.7 30.15 1205.76 16.45 1191.81 30.15 1177.87 43.85 1176.54 43.85 1173.39 43.85 1171.3 43.85 1171.68 43.49 1158.11 30.15 1144.17 16.45 1130.22 30.15 1116.28 43.85 1111.8 43.85 1127.98 27.95 1144.17 12.04"/><path class="cls-8" d="M1058.48,21h35.2l-17.6-17.29Zm7.31-3,10.29-10.11L1086.37,18Z" transform="translate(277.97)"/><polygon class="cls-7" points="1288.56 12.63 1281.59 19.48 1295.53 19.48 1309.47 19.48 1302.5 12.63 1295.53 5.78 1288.56 12.63"/><polygon class="cls-6" points="1167.66 12.63 1160.69 19.48 1174.63 19.48 1188.58 19.48 1181.6 12.63 1174.63 5.78 1167.66 12.63"/><path class="cls-4" d="M939.53,21.27h35.19L957.13,4Zm7.31-3,10.29-10.1,10.29,10.1Z" transform="translate(277.97)"/><path class="cls-5" d="M926.74,28.36l-17.6,17.29h35.2Zm-10.29,14.3,10.29-10.11L937,42.66Z" transform="translate(277.97)"/><polygon class="cls-4" points="2167.02 30.15 2174 37.01 2180.97 43.85 2153.08 43.85 2160.05 37.01 2167.02 30.15"/><path class="cls-4" d="M1827.75,26.56l-17.6,17.29h35.2Zm-10.29,14.3,10.29-10.1L1838,40.86Z" transform="translate(277.97)"/><polygon class="cls-5" points="2046.16 30.15 2053.13 37.01 2060.1 43.85 2032.21 43.85 2039.18 37.01 2046.16 30.15"/><path class="cls-6" d="M1706.88,26.56l-17.6,17.29h35.2Zm-10.28,14.3,10.28-10.1,10.3,10.1Z" transform="translate(277.97)"/><path class="cls-7" d="M1841.81,21.27H1877L1859.41,4Zm7.31-3,10.29-10.1,10.29,10.1Z" transform="translate(277.97)"/><path class="cls-5" d="M1930.4,4l-17.6,17.29H1948Zm-10.28,14.3,10.28-10.1,10.3,10.1Z" transform="translate(277.97)"/><path class="cls-5" d="M1359,21.27h35.2L1376.6,4Zm7.31-3,10.29-10.1,10.29,10.1Z" transform="translate(277.97)"/><polygon class="cls-6" points="2069.86 12.63 2062.88 19.48 2076.83 19.48 2090.77 19.48 2083.8 12.63 2076.83 5.78 2069.86 12.63"/><path class="cls-8" d="M1720.83,21.27H1756L1738.43,4Zm7.3-3,10.3-10.1,10.29,10.1Z" transform="translate(277.97)"/><polygon class="cls-5" points="1949.54 12.63 1942.57 19.48 1956.51 19.48 1970.45 19.48 1963.48 12.63 1956.51 5.78 1949.54 12.63"/><path class="cls-5" d="M1587.86,26.56l-17.59,17.29h35.19Zm-10.29,14.3,10.29-10.1,10.29,10.1Z" transform="translate(277.97)"/><polygon class="cls-4" points="1927.14 30.15 1934.1 37.01 1941.08 43.85 1913.19 43.85 1920.16 37.01 1927.14 30.15"/><polygon class="cls-6" points="1806.26 30.15 1813.24 37.01 1820.21 43.85 1792.32 43.85 1799.3 37.01 1806.26 30.15"/><polygon class="cls-4" points="1690.35 37.01 1697.32 43.85 1695.83 43.85 1669.43 43.85 1667.93 43.85 1674.91 37.01 1681.88 30.15 1682.63 30.89 1683.37 30.15 1690.35 37.01"/><polygon class="cls-9" points="1685.17 12.04 1701.35 27.95 1714.92 41.28 1715.96 42.31 1730.57 27.95 1746.76 12.04 1762.94 27.95 1776.51 41.28 1790.08 27.95 1806.26 12.04 1822.46 27.95 1836.94 42.19 1851.44 27.95 1867.62 12.04 1883.81 27.95 1897.38 41.29 1910.95 27.95 1927.14 12.04 1943.32 27.95 1956.89 41.28 1970.46 27.95 1986.64 12.04 2002.83 27.95 2016.4 41.28 2029.97 27.95 2046.16 12.04 2062.34 27.95 2076.84 42.19 2091.33 27.95 2107.52 12.04 2123.7 27.95 2137.27 41.28 2150.84 27.95 2167.02 12.04 2183.21 27.95 2199.4 43.85 2194.91 43.85 2180.97 30.15 2167.02 16.45 2153.08 30.15 2139.51 43.49 2139.89 43.85 2134.65 43.85 2135.03 43.49 2121.46 30.15 2107.52 16.45 2093.57 30.15 2079.62 43.85 2078.53 43.85 2075.15 43.85 2074.05 43.85 2060.1 30.15 2046.16 16.45 2032.21 30.15 2018.65 43.49 2019.02 43.85 2013.79 43.85 2014.16 43.49 2000.59 30.15 1986.64 16.45 1972.7 30.15 1959.13 43.49 1959.51 43.85 1954.27 43.85 1954.65 43.49 1941.08 30.15 1927.14 16.45 1913.19 30.15 1899.62 43.49 1899.99 43.85 1894.77 43.85 1895.14 43.49 1881.57 30.15 1867.62 16.45 1853.68 30.15 1839.73 43.85 1838.64 43.85 1835.25 43.85 1834.15 43.85 1820.21 30.15 1806.26 16.45 1792.32 30.15 1778.75 43.49 1779.13 43.85 1773.89 43.85 1774.27 43.49 1760.7 30.15 1746.76 16.45 1732.81 30.15 1718.87 43.85 1717.54 43.85 1714.39 43.85 1712.3 43.85 1712.68 43.49 1699.11 30.15 1685.17 16.45 1671.22 30.15 1657.28 43.85 1652.8 43.85 1668.98 27.95 1685.17 12.04"/><path class="cls-8" d="M1599.48,21h35.2l-17.6-17.29Zm7.31-3,10.29-10.11L1627.37,18Z" transform="translate(277.97)"/><polygon class="cls-7" points="1829.56 12.63 1822.59 19.48 1836.53 19.48 1850.47 19.48 1843.5 12.63 1836.53 5.78 1829.56 12.63"/><polygon class="cls-6" points="1708.66 12.63 1701.69 19.48 1715.63 19.48 1729.58 19.48 1722.6 12.63 1715.63 5.78 1708.66 12.63"/><path class="cls-4" d="M1480.53,21.27h35.19L1498.13,4Zm7.31-3,10.29-10.1,10.29,10.1Z" transform="translate(277.97)"/><path class="cls-5" d="M1467.74,28.36l-17.6,17.29h35.2Zm-10.29,14.3,10.29-10.11L1478,42.66Z" transform="translate(277.97)"/><polygon class="cls-4" points="1085.02 30.2 1092 37.06 1098.97 43.91 1071.08 43.91 1078.05 37.06 1085.02 30.2"/><path class="cls-4" d="M747.75,26.56l-17.6,17.29h35.2Zm-10.29,14.3,10.29-10.1L758,40.86Z" transform="translate(277.97)"/><polygon class="cls-5" points="964.16 30.2 971.13 37.06 978.1 43.91 950.21 43.91 957.18 37.06 964.16 30.2"/><path class="cls-6" d="M625.88,26.56l-17.6,17.29h35.2ZM615.6,40.86l10.28-10.1,10.3,10.1Z" transform="translate(277.97)"/><path class="cls-7" d="M759.81,21.27H795L777.41,4Zm7.31-3,10.29-10.1,10.29,10.1Z" transform="translate(277.97)"/><path class="cls-5" d="M276.49,21.27h35.19L294.09,4Zm7.31-3,10.29-10.1,10.29,10.1Z" transform="translate(277.97)"/><polygon class="cls-6" points="986.86 13.06 979.88 19.91 993.83 19.91 1007.77 19.91 1000.8 13.06 993.83 6.21 986.86 13.06"/><path class="cls-8" d="M638.83,21.27H674L656.43,4Zm7.3-3,10.3-10.1,10.29,10.1Z" transform="translate(277.97)"/><polygon class="cls-5" points="867.54 13.06 860.57 19.91 874.51 19.91 888.45 19.91 881.48 13.06 874.51 6.21 867.54 13.06"/><path class="cls-5" d="M505.86,26.56,488.27,43.85h35.19Zm-10.29,14.3,10.29-10.1,10.29,10.1Z" transform="translate(277.97)"/><polygon class="cls-4" points="844.14 30.2 851.1 37.06 858.08 43.91 830.19 43.91 837.16 37.06 844.14 30.2"/><polygon class="cls-6" points="723.26 30.2 730.24 37.06 737.21 43.91 709.32 43.91 716.3 37.06 723.26 30.2"/><polygon class="cls-4" points="609.35 37.06 616.32 43.91 614.83 43.91 588.43 43.91 586.93 43.91 593.91 37.06 600.88 30.2 601.63 30.94 602.37 30.2 609.35 37.06"/><polygon class="cls-9" points="603.17 12.1 619.35 28.01 632.92 41.34 633.96 42.36 648.57 28.01 664.76 12.1 680.94 28.01 694.51 41.34 708.08 28.01 724.26 12.1 740.46 28.01 754.94 42.24 769.44 28.01 785.62 12.1 801.81 28.01 815.38 41.34 828.95 28.01 845.14 12.1 861.32 28.01 874.89 41.34 888.46 28.01 904.64 12.1 920.83 28.01 934.4 41.34 947.97 28.01 964.16 12.1 980.34 28.01 994.84 42.25 1009.33 28.01 1025.52 12.1 1041.7 28.01 1055.27 41.34 1068.84 28.01 1085.02 12.1 1101.21 28.01 1117.4 43.91 1112.91 43.91 1098.97 30.2 1085.02 16.5 1071.08 30.2 1057.51 43.54 1057.88 43.91 1052.65 43.91 1053.03 43.54 1039.46 30.2 1025.52 16.5 1011.57 30.2 997.62 43.91 996.52 43.91 993.15 43.91 992.05 43.91 978.1 30.2 964.16 16.5 950.21 30.2 936.65 43.54 937.02 43.91 931.79 43.91 932.16 43.54 918.59 30.2 904.64 16.5 890.7 30.2 877.13 43.54 877.51 43.91 872.27 43.91 872.65 43.54 859.08 30.2 845.14 16.5 831.19 30.2 817.62 43.54 817.99 43.91 812.77 43.91 813.14 43.54 799.57 30.2 785.62 16.5 771.68 30.2 757.73 43.91 756.64 43.91 753.25 43.91 752.15 43.91 738.21 30.2 724.26 16.5 710.32 30.2 696.75 43.54 697.13 43.91 691.89 43.91 692.27 43.54 678.7 30.2 664.76 16.5 650.81 30.2 636.87 43.91 635.54 43.91 632.39 43.91 630.3 43.91 630.68 43.54 617.11 30.2 603.17 16.5 589.22 30.2 575.27 43.91 570.8 43.91 586.98 28.01 603.17 12.1"/><path class="cls-8" d="M518.48,21h35.2L536.08,3.69Zm7.31-3L536.08,7.88,546.37,18Z" transform="translate(277.97)"/><polygon class="cls-7" points="748.56 13.06 741.59 19.91 755.53 19.91 769.47 19.91 762.5 13.06 755.53 6.21 748.56 13.06"/><polygon class="cls-6" points="628.66 13.06 621.69 19.91 635.63 19.91 649.58 19.91 642.6 13.06 635.63 6.21 628.66 13.06"/><path class="cls-4" d="M399.53,21.27h35.19L417.13,4Zm7.31-3,10.29-10.1,10.29,10.1Z" transform="translate(277.97)"/><path class="cls-5" d="M384.74,28.36l-17.6,17.29h35.2Zm-10.29,14.3,10.29-10.11L395,42.66Z" transform="translate(277.97)"/><polygon class="cls-4" points="542.05 30.2 549.02 37.06 556 43.91 528.11 43.91 535.08 37.06 542.05 30.2"/><path class="cls-4" d="M204.77,26.56,187.18,43.85h35.2Zm-10.28,14.3,10.28-10.1,10.3,10.1Z" transform="translate(277.97)"/><polygon class="cls-5" points="421.18 30.2 428.16 37.06 435.12 43.91 407.24 43.91 414.21 37.06 421.18 30.2"/><path class="cls-6" d="M82.91,26.56,65.31,43.85h35.2ZM72.62,40.86l10.29-10.1L93.2,40.86Z" transform="translate(277.97)"/><path class="cls-7" d="M216.84,21.27H252L234.43,4Zm7.31-3,10.28-10.1,10.3,10.1Z" transform="translate(277.97)"/><path class="cls-5" d="M-278,21.27h35.19L-260.38,4Zm7.31-3,10.28-10.1,10.3,10.1Z" transform="translate(277.97)"/><polygon class="cls-6" points="443.88 13.06 436.91 19.91 450.85 19.91 464.8 19.91 457.83 13.06 450.85 6.21 443.88 13.06"/><path class="cls-8" d="M95.86,21.27h35.19L113.45,4Zm7.3-3,10.29-10.1,10.29,10.1Z" transform="translate(277.97)"/><polygon class="cls-5" points="324.56 13.06 317.59 19.91 331.54 19.91 345.48 19.91 338.51 13.06 331.54 6.21 324.56 13.06"/><path class="cls-5" d="M-37.11,26.56l-17.6,17.29h35.2Zm-10.3,14.3,10.3-10.1,10.28,10.1Z" transform="translate(277.97)"/><polygon class="cls-4" points="301.16 30.2 308.13 37.06 315.11 43.91 287.21 43.91 294.19 37.06 301.16 30.2"/><polygon class="cls-6" points="180.29 30.2 187.26 37.06 194.24 43.91 166.35 43.91 173.32 37.06 180.29 30.2"/><polygon class="cls-4" points="66.37 37.06 73.35 43.91 71.85 43.91 45.46 43.91 43.96 43.91 50.94 37.06 57.9 30.2 58.65 30.94 59.4 30.2 66.37 37.06"/><polygon class="cls-9" points="60.19 12.1 76.38 28.01 89.94 41.34 90.99 42.36 105.6 28.01 121.78 12.1 137.97 28.01 151.54 41.34 165.1 28.01 181.29 12.1 197.48 28.01 211.97 42.24 226.47 28.01 242.65 12.1 258.83 28.01 272.4 41.34 285.98 28.01 302.16 12.1 318.35 28.01 331.92 41.34 345.48 28.01 361.67 12.1 377.85 28.01 391.43 41.34 405 28.01 421.18 12.1 437.37 28.01 451.86 42.25 466.36 28.01 482.54 12.1 498.73 28.01 512.29 41.34 525.86 28.01 542.05 12.1 558.23 28.01 574.42 43.91 569.94 43.91 556 30.2 542.05 16.5 528.11 30.2 514.54 43.54 514.91 43.91 509.68 43.91 510.05 43.54 496.48 30.2 482.54 16.5 468.59 30.2 454.65 43.91 453.55 43.91 450.17 43.91 449.07 43.91 435.12 30.2 421.18 16.5 407.24 30.2 393.67 43.54 394.05 43.91 388.81 43.91 389.19 43.54 375.62 30.2 361.67 16.5 347.73 30.2 334.16 43.54 334.53 43.91 329.3 43.91 329.67 43.54 316.11 30.2 302.16 16.5 288.21 30.2 274.64 43.54 275.02 43.91 269.79 43.91 270.17 43.54 256.59 30.2 242.65 16.5 228.71 30.2 214.76 43.91 213.67 43.91 210.28 43.91 209.18 43.91 195.24 30.2 181.29 16.5 167.35 30.2 153.78 43.54 154.15 43.91 148.92 43.91 149.29 43.54 135.73 30.2 121.78 16.5 107.83 30.2 93.89 43.91 92.56 43.91 89.41 43.91 87.33 43.91 87.7 43.54 74.13 30.2 60.19 16.5 46.24 30.2 32.3 43.91 27.82 43.91 44.01 28.01 60.19 12.1"/><path class="cls-8" d="M-24.49,21h35.2L-6.89,3.69Zm7.31-3L-6.89,7.88,3.4,18Z" transform="translate(277.97)"/><polygon class="cls-7" points="205.58 13.06 198.61 19.91 212.56 19.91 226.5 19.91 219.53 13.06 212.56 6.21 205.58 13.06"/><polygon class="cls-6" points="85.69 13.06 78.71 19.91 92.66 19.91 106.6 19.91 99.63 13.06 92.66 6.21 85.69 13.06"/><path class="cls-4" d="M-143.44,21.27h35.19L-125.85,4Zm7.31-3,10.28-10.1,10.3,10.1Z" transform="translate(277.97)"/><path class="cls-5" d="M-158.23,28.36l-17.6,17.29h35.19Zm-10.3,14.3,10.3-10.11,10.28,10.11Z" transform="translate(277.97)"/></g></g></g></svg>